# xmcd
# Copyright (C) 1995-1998 Ti Kan
#
# Track frame offsets:
#       150
#       18509
#       35107
#       53580
#       68767
#       86266
#
# Disc length: 1347 seconds
#
# Revision: 0
# Processed by: cddbd v1.5.2PL0 Copyright (c) Steve Scherf et al.
# Submitted via: CD-Import v1.0
#
DISCID=43054106
DTITLE=Dans La Tente - Knights
DYEAR=09
DGENRE=
TTITLE0=Don't Take Everyone's Hand
TTITLE1=Haze
TTITLE2=I Know
TTITLE3=Diver
TTITLE4=Streetlights
TTITLE5=Knights
EXTD=
EXTT0=
EXTT1=
EXTT2=
EXTT3=
EXTT4=
EXTT5=
PLAYORDER=
